# File created by Blade
# Date/Time:  Tue Jan 27 19:58:31 2015
# Frame Rate: 120.000 fps
#------------------------------------------------------
:FULLY-SPECIFIED
:DEGREES
3751
root 4.492606 32.137239 3.914977 -5.415836 -1.275362 0.720979
Spine 4.115476 6.433106 -0.862966
Head -6.814006 -7.878462 5.252061
LeftShoulder -12.487184 -8.958378 41.336980
LeftArm 16.627821 -17.085610 -42.918929
LeftForeArm 11.448754 -0.000000 -9.345953
LeftHand 7.757357 -0.000000 -0.692694
LeftHandThumb1 -26.253704 0.000000 33.147579
RightShoulder -18.389768 -17.926216 -40.015958
RightArm 15.790216 22.564289 45.463842
RightForeArm -15.448183 -0.000000 5.588945
RightHand 18.737719 -0.000000 9.484777
RightHandThumb1 -24.326973 -0.000000 -32.862282
LeftUpLeg 11.523608 6.621923 -4.669916
LeftLeg 3.588658 -0.000000 -0.000000
LeftFoot -16.133200 4.139945 -16.194247
LeftToeBase 21.294393 -0.000000 -0.000000
RightUpLeg 8.621064 -8.847580 5.634075
RightLeg 9.374422 -0.000000 -0.000000
RightFoot -17.294118 -9.726071 14.458301
RightToeBase 9.519665 -0.000000 -0.000000
3752
root 4.487709 32.137741 3.914664 -5.432119 -1.245757 0.721470
Spine 4.127205 6.432161 -0.882714
Head -6.715964 -7.812374 5.222571
LeftShoulder -12.499920 -8.873407 41.367767
LeftArm 16.720798 -16.989898 -42.942783
LeftForeArm 11.397795 -0.000000 -9.368629
LeftHand 7.765568 -0.000000 -0.720314
LeftHandThumb1 -26.253704 0.000000 33.147579
RightShoulder -18.385861 -17.925876 -39.989494
RightArm 15.783575 22.549204 45.456947
RightForeArm -15.537586 -0.000000 5.598448
RightHand 18.698684 -0.000000 9.582452
RightHandThumb1 -24.326973 -0.000000 -32.862282
LeftUpLeg 11.524732 6.657064 -4.648389
LeftLeg 3.622272 -0.000000 -0.000000
LeftFoot -16.131884 4.075245 -16.217185
LeftToeBase 21.254817 -0.000000 -0.000000
RightUpLeg 8.639704 -8.884539 5.634832
RightLeg 9.370569 -0.000000 -0.000000
RightFoot -17.290508 -9.723650 14.491142
RightToeBase 9.530861 -0.000000 -0.000000
3753
root 4.485140 32.137835 3.913590 -5.442512 -1.229322 0.719750
Spine 4.134111 6.439723 -0.869288
Head -6.665139 -7.874249 5.236692
LeftShoulder -12.481843 -8.889653 41.368308
LeftArm 16.695984 -16.948307 -42.931040
LeftForeArm 11.429877 -0.000000 -9.365516
LeftHand 7.801334 -0.000000 -0.748103
LeftHandThumb1 -26.253704 0.000000 33.147579
RightShoulder -18.382030 -17.934219 -40.009742
RightArm 15.784789 22.577332 45.494121
RightForeArm -15.640431 0.000000 5.623875
RightHand 18.664617 0.000000 9.624562
RightHandThumb1 -24.326973 -0.000000 -32.862282
LeftUpLeg 11.521194 6.670599 -4.636188
LeftLeg 3.649729 -0.000000 -0.000000
LeftFoot -16.138204 4.035322 -16.234941
LeftToeBase 21.305802 -0.000000 -0.000000
RightUpLeg 8.646891 -8.904455 5.637156
RightLeg 9.373878 -0.000000 -0.000000
RightFoot -17.290624 -9.723652 14.472021
RightToeBase 9.522633 -0.000000 -0.000000
3754
root 4.482160 32.137461 3.912796 -5.449050 -1.214636 0.722552
Spine 4.137698 6.449209 -0.868820
Head -6.595236 -7.875167 5.221427
LeftShoulder -12.474799 -8.913405 41.356710
LeftArm 16.691554 -16.957660 -42.904280
LeftForeArm 11.550278 -0.000000 -9.363997
LeftHand 7.812075 -0.000000 -0.817134
LeftHandThumb1 -26.253704 0.000000 33.147579
RightShoulder -18.372294 -17.913311 -40.011354
RightArm 15.762635 22.539565 45.478849
RightForeArm -15.628939 -0.000000 5.651958
RightHand 18.562537 0.000000 9.722074
RightHandThumb1 -24.326973 -0.000000 -32.862282
LeftUpLeg 11.520404 6.708402 -4.622424
LeftLeg 3.658349 -0.000000 -0.000000
LeftFoot -16.122971 4.004993 -16.168540
LeftToeBase 21.162013 -0.000000 -0.000000
RightUpLeg 8.657597 -8.890239 5.644311
RightLeg 9.363895 -0.000000 -0.000000
RightFoot -17.312075 -9.740066 14.509026
RightToeBase 9.656359 -0.000000 -0.000000
3755
root 4.479380 32.137187 3.912669 -5.468009 -1.204481 0.719939
Spine 4.158820 6.447701 -0.861520
Head -6.534501 -7.839020 5.207634
LeftShoulder -12.485019 -8.926218 41.356544
LeftArm 16.686491 -16.970534 -42.886013
LeftForeArm 11.670759 -0.000000 -9.360139
LeftHand 7.807757 -0.000000 -0.898744
LeftHandThumb1 -26.253704 0.000000 33.147579
RightShoulder -18.361205 -17.910144 -40.011272
RightArm 15.761640 22.575792 45.509154
RightForeArm -15.685334 0.000000 5.668205
RightHand 18.672466 -0.000000 9.596727
RightHandThumb1 -24.326973 -0.000000 -32.862282
LeftUpLeg 11.527753 6.754994 -4.601144
LeftLeg 3.683744 -0.000000 -0.000000
LeftFoot -16.111984 3.938023 -16.187551
LeftToeBase 21.147990 -0.000000 -0.000000
RightUpLeg 8.695822 -8.893186 5.646170
RightLeg 9.327695 -0.000000 -0.000000
RightFoot -17.293163 -9.729765 14.521705
RightToeBase 9.605613 -0.000000 -0.000000
3756
root 4.478923 32.136630 3.909407 -5.464203 -1.204913 0.721318
Spine 4.162772 6.458535 -0.847096
Head -6.475058 -7.785774 5.174809
LeftShoulder -12.518964 -8.819027 41.311913
LeftArm 16.825869 -17.002578 -42.881948
LeftForeArm 11.694877 0.000000 -9.408451
LeftHand 7.777353 -0.000000 -1.023033
LeftHandThumb1 -26.253704 0.000000 33.147579
RightShoulder -18.360168 -17.913437 -39.999110
RightArm 15.778420 22.559402 45.480506
RightForeArm -15.649374 -0.000000 5.655289
RightHand 18.761313 0.000000 9.611091
RightHandThumb1 -24.326973 -0.000000 -32.862282
LeftUpLeg 11.496197 6.768461 -4.600781
LeftLeg 3.734458 -0.000000 -0.000000
LeftFoot -16.092499 3.938288 -16.023907
LeftToeBase 21.030364 -0.000000 -0.000000
RightUpLeg 8.696400 -8.846730 5.658795
RightLeg 9.307650 -0.000000 -0.000000
RightFoot -17.305596 -9.772882 14.542469
RightToeBase 9.665801 -0.000000 -0.000000
3757
root 4.475057 32.135995 3.910267 -5.481535 -1.188596 0.721365
Spine 4.181010 6.466824 -0.854766
Head -6.423939 -7.733324 5.227846
LeftShoulder -12.540100 -8.746369 41.299943
LeftArm 16.939736 -16.984242 -42.866639
LeftForeArm 11.724666 -0.000000 -9.467005
LeftHand 7.769843 -0.000000 -1.031657
LeftHandThumb1 -26.253704 0.000000 33.147579
RightShoulder -18.354161 -17.868321 -39.983581
RightArm 15.740709 22.508516 45.438601
RightForeArm -15.606918 0.000000 5.638132
RightHand 18.794446 -0.000000 9.582401
RightHandThumb1 -24.326973 -0.000000 -32.862282
LeftUpLeg 11.503361 6.774912 -4.588892
LeftLeg 3.752474 -0.000000 -0.000000
LeftFoot -16.144033 3.923139 -16.113187
LeftToeBase 21.129636 -0.000000 -0.000000
RightUpLeg 8.729975 -8.916059 5.647281
RightLeg 9.289632 -0.000000 -0.000000
RightFoot -17.287731 -9.729864 14.509236
RightToeBase 9.572693 -0.000000 -0.000000
3758
root 4.472269 32.135133 3.910301 -5.497037 -1.197318 0.719980
Spine 4.196454 6.488915 -0.848208
Head -6.341341 -7.688614 5.223301
LeftShoulder -12.524493 -8.887096 41.339005
LeftArm 16.835429 -16.651316 -42.763983
LeftForeArm 11.551523 0.000000 -9.556477
LeftHand 7.777531 -0.000000 -1.044449
LeftHandThumb1 -26.253704 0.000000 33.147579
RightShoulder -18.348653 -17.897540 -39.961835
RightArm 15.776350 22.549483 45.444286
RightForeArm -15.570519 0.000000 5.631151
RightHand 18.805054 0.000000 9.565478
RightHandThumb1 -24.326973 -0.000000 -32.862282
LeftUpLeg 11.506428 6.803748 -4.572903
LeftLeg 3.782339 -0.000000 -0.000000
LeftFoot -16.161331 3.885172 -16.151197
LeftToeBase 21.115858 -0.000000 -0.000000
RightUpLeg 8.758976 -8.939494 5.645283
RightLeg 9.261327 -0.000000 -0.000000
RightFoot -17.279619 -9.688626 14.505721
RightToeBase 9.663856 -0.000000 -0.000000
3759
root 4.469263 32.134645 3.909631 -5.497647 -1.195834 0.721704
Spine 4.189809 6.489714 -0.844079
Head -6.221909 -7.643932 5.149003
LeftShoulder -12.492561 -9.022608 41.374614
LeftArm 16.666297 -16.531622 -42.697573
LeftForeArm 11.553588 -0.000000 -9.541899
LeftHand 7.796382 -0.000000 -1.076092
LeftHandThumb1 -26.253704 0.000000 33.147579
RightShoulder -18.327069 -17.888733 -39.966042
RightArm 15.794972 22.566074 45.445909
RightForeArm -15.556882 0.000000 5.605738
RightHand 18.788429 -0.000000 9.598401
RightHandThumb1 -24.326973 -0.000000 -32.862282
LeftUpLeg 11.490281 6.840277 -4.559882
LeftLeg 3.809811 -0.000000 -0.000000
LeftFoot -16.151860 3.855642 -16.085302
LeftToeBase 21.163942 -0.000000 -0.000000
RightUpLeg 8.773246 -8.949817 5.645713
RightLeg 9.235614 -0.000000 -0.000000
RightFoot -17.275753 -9.673605 14.501012
RightToeBase 9.611103 -0.000000 -0.000000
